<svg xmlns="http://www.w3.org/2000/svg" width="27" height="26.875" viewBox="0 0 27 26.875">
  <metadata><?xpacket begin="﻿" id="W5M0MpCehiHzreSzNTczkc9d"?>
<x:xmpmeta xmlns:x="adobe:ns:meta/" x:xmptk="Adobe XMP Core 5.6-c138 79.159824, 2016/09/14-01:09:01        ">
   <rdf:RDF xmlns:rdf="http://www.w3.org/1999/02/22-rdf-syntax-ns#">
      <rdf:Description rdf:about=""/>
   </rdf:RDF>
</x:xmpmeta>
                                                                                                    
                                                                                                    
                                                                                                    
                                                                                                    
                                                                                                    
                                                                                                    
                                                                                                    
                                                                                                    
                                                                                                    
                                                                                                    
                                                                                                    
                                                                                                    
                                                                                                    
                                                                                                    
                                                                                                    
                                                                                                    
                                                                                                    
                                                                                                    
                                                                                                    
                                                                                                    
                           
<?xpacket end="w"?></metadata>
<defs>
    <style>
      .cls-1 {
        fill: #2242ac;
        fill-rule: evenodd;
      }
    </style>
  </defs>
  <path id="rounded_rectangle_11_copy_2" data-name="rounded_rectangle 11 copy 2" class="cls-1" d="M9194.5,619.866a13.433,13.433,0,1,1,13.5-13.433A13.449,13.449,0,0,1,9194.5,619.866ZM9195.1,599a1.227,1.227,0,1,0,1.18,1.227A1.2,1.2,0,0,0,9195.1,599Zm4.62,7.089a0.928,0.928,0,0,0-1.35,0l-2.46,2.557v-4.928a0.906,0.906,0,1,0-1.81,0v4.928l-2.47-2.56a0.93,0.93,0,0,0-1.35,0,1.022,1.022,0,0,0,0,1.4l4.05,4.2a0.928,0.928,0,0,0,1.35,0l4.04-4.2A1,1,0,0,0,9199.72,606.089Z" transform="translate(-9181 -593)"/>
</svg>
