<svg xmlns="http://www.w3.org/2000/svg" width="27" height="26.875" viewBox="0 0 27 26.875">
  <metadata><?xpacket begin="﻿" id="W5M0MpCehiHzreSzNTczkc9d"?>
<x:xmpmeta xmlns:x="adobe:ns:meta/" x:xmptk="Adobe XMP Core 5.6-c138 79.159824, 2016/09/14-01:09:01        ">
   <rdf:RDF xmlns:rdf="http://www.w3.org/1999/02/22-rdf-syntax-ns#">
      <rdf:Description rdf:about=""/>
   </rdf:RDF>
</x:xmpmeta>
                                                                                                    
                                                                                                    
                                                                                                    
                                                                                                    
                                                                                                    
                                                                                                    
                                                                                                    
                                                                                                    
                                                                                                    
                                                                                                    
                                                                                                    
                                                                                                    
                                                                                                    
                                                                                                    
                                                                                                    
                                                                                                    
                                                                                                    
                                                                                                    
                                                                                                    
                                                                                                    
                           
<?xpacket end="w"?></metadata>
<defs>
    <style>
      .cls-1 {
        fill: #239e43;
        fill-rule: evenodd;
      }
    </style>
  </defs>
  <path id="形状_17" data-name="形状 17" class="cls-1" d="M9194.5,762a13.433,13.433,0,1,1,13.5-13.433A13.449,13.449,0,0,1,9194.5,762Zm7.27-9.082a4.7,4.7,0,0,1-6.55,1.7,5.012,5.012,0,0,1-2.3-5.58l-1.43-.846a1.152,1.152,0,0,1-1.62.421,1.234,1.234,0,0,1-.46-1.662l-1.04-.62a1.236,1.236,0,0,1-.46-1.663,1.154,1.154,0,0,1,1.62-.421l4.57,2.717a4.713,4.713,0,0,1,6.79.008,4.982,4.982,0,0,1,.88,5.948h0Zm-2.12-1.261a2.5,2.5,0,0,0-.92-3.351,2.354,2.354,0,0,0-3.28.849,2.507,2.507,0,0,0,.93,3.351,2.343,2.343,0,0,0,3.27-.849h0Z" transform="translate(-9181 -735.125)"/>
</svg>
