<svg xmlns="http://www.w3.org/2000/svg" width="27" height="26.876" viewBox="0 0 27 26.876">
  <metadata><?xpacket begin="﻿" id="W5M0MpCehiHzreSzNTczkc9d"?>
<x:xmpmeta xmlns:x="adobe:ns:meta/" x:xmptk="Adobe XMP Core 5.6-c138 79.159824, 2016/09/14-01:09:01        ">
   <rdf:RDF xmlns:rdf="http://www.w3.org/1999/02/22-rdf-syntax-ns#">
      <rdf:Description rdf:about=""/>
   </rdf:RDF>
</x:xmpmeta>
                                                                                                    
                                                                                                    
                                                                                                    
                                                                                                    
                                                                                                    
                                                                                                    
                                                                                                    
                                                                                                    
                                                                                                    
                                                                                                    
                                                                                                    
                                                                                                    
                                                                                                    
                                                                                                    
                                                                                                    
                                                                                                    
                                                                                                    
                                                                                                    
                                                                                                    
                                                                                                    
                           
<?xpacket end="w"?></metadata>
<defs>
    <style>
      .cls-1 {
        fill: #f69710;
        fill-rule: evenodd;
      }
    </style>
  </defs>
  <path id="圆角矩形_11_拷贝_3" data-name="圆角矩形 11 拷贝 3" class="cls-1" d="M9194.5,667.925a13.433,13.433,0,1,1,13.5-13.432A13.448,13.448,0,0,1,9194.5,667.925Zm0.6-6.925a1.231,1.231,0,1,0-1.18-1.23A1.206,1.206,0,0,0,9195.1,661Zm4.62-8.509-4.04-4.21a0.928,0.928,0,0,0-1.35,0l-4.05,4.212a1.025,1.025,0,0,0,0,1.4,0.927,0.927,0,0,0,1.35,0l2.47-2.565v4.94a0.906,0.906,0,1,0,1.81,0V651.33l2.46,2.564a0.927,0.927,0,0,0,1.35,0A1.006,1.006,0,0,0,9199.72,652.491Z" transform="translate(-9181 -641.062)"/>
</svg>
