<svg xmlns="http://www.w3.org/2000/svg" width="27" height="26.875" viewBox="0 0 27 26.875">
  <metadata><?xpacket begin="﻿" id="W5M0MpCehiHzreSzNTczkc9d"?>
<x:xmpmeta xmlns:x="adobe:ns:meta/" x:xmptk="Adobe XMP Core 5.6-c138 79.159824, 2016/09/14-01:09:01        ">
   <rdf:RDF xmlns:rdf="http://www.w3.org/1999/02/22-rdf-syntax-ns#">
      <rdf:Description rdf:about=""/>
   </rdf:RDF>
</x:xmpmeta>
                                                                                                    
                                                                                                    
                                                                                                    
                                                                                                    
                                                                                                    
                                                                                                    
                                                                                                    
                                                                                                    
                                                                                                    
                                                                                                    
                                                                                                    
                                                                                                    
                                                                                                    
                                                                                                    
                                                                                                    
                                                                                                    
                                                                                                    
                                                                                                    
                                                                                                    
                                                                                                    
                           
<?xpacket end="w"?></metadata>
<defs>
    <style>
      .cls-1 {
        fill: #01afdb;
        fill-rule: evenodd;
      }
    </style>
  </defs>
  <path id="shape_8" data-name="shape 8" class="cls-1" d="M9194.5,715.343A13.433,13.433,0,1,1,9208,701.91,13.449,13.449,0,0,1,9194.5,715.343Zm-6.21-10.47,3.03,2.357a0.962,0.962,0,0,0,1.19-1.512l-0.83-.648h8.45a0.96,0.96,0,1,0,0-1.919h-11.26a0.955,0.955,0,0,0-.91.651A0.945,0.945,0,0,0,9188.29,704.873Zm12.42-6.16-3.03-2.356a0.962,0.962,0,0,0-1.19,1.512l0.83,0.648h-8.45a0.96,0.96,0,1,0,0,1.919h11.26A0.958,0.958,0,0,0,9200.71,698.713Z" transform="translate(-9181 -688.469)"/>
</svg>
