<svg xmlns="http://www.w3.org/2000/svg" width="24" height="21" viewBox="0 0 24 21">
  <metadata><?xpacket begin="﻿" id="W5M0MpCehiHzreSzNTczkc9d"?>
<x:xmpmeta xmlns:x="adobe:ns:meta/" x:xmptk="Adobe XMP Core 5.6-c138 79.159824, 2016/09/14-01:09:01        ">
   <rdf:RDF xmlns:rdf="http://www.w3.org/1999/02/22-rdf-syntax-ns#">
      <rdf:Description rdf:about=""/>
   </rdf:RDF>
</x:xmpmeta>
                                                                                                    
                                                                                                    
                                                                                                    
                                                                                                    
                                                                                                    
                                                                                                    
                                                                                                    
                                                                                                    
                                                                                                    
                                                                                                    
                                                                                                    
                                                                                                    
                                                                                                    
                                                                                                    
                                                                                                    
                                                                                                    
                                                                                                    
                                                                                                    
                                                                                                    
                                                                                                    
                           
<?xpacket end="w"?></metadata>
<defs>
    <style>
      .cls-1 {
        fill: #049ee8;
        fill-rule: evenodd;
      }
    </style>
  </defs>
  <path id="shape_1_copy" data-name="shape 1 copy" class="cls-1" d="M376.762,699.962a1.239,1.239,0,0,0-.787.285l-2.185-1.84,1.678-5.075c0.019,0,.037,0,0.057,0a0.838,0.838,0,1,0,0-1.675,0.523,0.523,0,0,0-.057.006L374,687.235a0.832,0.832,0,0,0,.4-0.707,0.85,0.85,0,0,0-1.4-.639l-3.865-2.743a0.819,0.819,0,0,0,.062-0.309,0.852,0.852,0,0,0-1.675-.2h-4.679a0.852,0.852,0,0,0-1.675.2,0.818,0.818,0,0,0,.061.309l-3.864,2.743a0.85,0.85,0,0,0-1.4.639,0.832,0.832,0,0,0,.4.707l-1.458,4.412c-0.022,0-.042-0.007-0.064-0.007a0.838,0.838,0,1,0,0,1.675c0.017,0,.033,0,0.05,0l1.472,4.454a0.832,0.832,0,0,0-.4.707,0.85,0.85,0,0,0,1.387.647l3.874,2.737a0.8,0.8,0,0,0-.061.307,0.852,0.852,0,0,0,1.675.2h4.679a0.852,0.852,0,0,0,1.675-.2,0.8,0.8,0,0,0-.061-0.306l4.4-3.124,2.166,1.824a1.179,1.179,0,0,0-.179.621A1.237,1.237,0,1,0,376.762,699.962Zm-3.074-12.357,1.384,4.187a0.833,0.833,0,0,0-.371.5H373.99a0.839,0.839,0,0,0-.569-0.611Zm-0.4-.284-0.283,4.335a0.582,0.582,0,0,0-.06.014l-1.761-3.271a0.825,0.825,0,0,0,.282-0.618,0.909,0.909,0,0,0-.014-0.139l0.228-.1,1.2-.508A0.849,0.849,0,0,0,373.29,687.321Zm-4.776,4.358a0.875,0.875,0,0,0-.163-0.016,0.838,0.838,0,0,0-.231.035l-2.348-4a0.829,0.829,0,0,0,.2-0.284l3.8,0.463a0.823,0.823,0,0,0,.3.545Zm1.94-3.077a0.873,0.873,0,0,0,.162.017,0.858,0.858,0,0,0,.2-0.027l1.762,3.273a0.835,0.835,0,0,0-.253.431h-3.154a0.838,0.838,0,0,0-.266-0.425Zm-2.7,3.3a0.827,0.827,0,0,0-.23.4h-4.679a0.832,0.832,0,0,0-.231-0.4l2.35-4a0.848,0.848,0,0,0,.22.032,0.835,0.835,0,0,0,.22-0.032Zm-5.5-.2a0.824,0.824,0,0,0-.229-0.035,0.877,0.877,0,0,0-.164.016l-1.56-3.254a0.828,0.828,0,0,0,.3-0.545l3.792-.481a0.839,0.839,0,0,0,.2.295Zm-0.768.158a0.833,0.833,0,0,0-.285.44h-3.13a0.831,0.831,0,0,0-.258-0.418l1.751-3.285a0.859,0.859,0,0,0,.2.026,0.885,0.885,0,0,0,.164-0.017Zm-3.415.848h3.13a0.833,0.833,0,0,0,.285.44l-1.562,3.258a0.856,0.856,0,0,0-.162-0.016,0.816,0.816,0,0,0-.2.026l-1.75-3.29A0.829,0.829,0,0,0,358.072,692.7Zm3.79,0.618a0.885,0.885,0,0,0,.164.016,0.845,0.845,0,0,0,.231-0.036l2.339,3.983a0.833,0.833,0,0,0-.2.3l-3.791-.462a0.83,0.83,0,0,0-.305-0.543Zm0.757-.222a0.835,0.835,0,0,0,.23-0.4h4.679a0.827,0.827,0,0,0,.23.4l-2.338,3.983a0.762,0.762,0,0,0-.463,0Zm5.5,0.2a0.839,0.839,0,0,0,.231.036,0.885,0.885,0,0,0,.164-0.016l1.562,3.258a0.82,0.82,0,0,0-.3.54l-3.794.463a0.833,0.833,0,0,0-.2-0.3Zm0.77-.158a0.833,0.833,0,0,0,.285-0.44h3.168a0.829,0.829,0,0,0,.256.4l-1.781,3.308a0.82,0.82,0,0,0-.366-0.01Zm0.006-9.668,3.864,2.743a0.811,0.811,0,0,0-.061.309,0.845,0.845,0,0,0,.013.134l-1.426.607a0.853,0.853,0,0,0-.67-0.326,0.882,0.882,0,0,0-.147.015l-1.5-3.279-0.087-.189Zm-0.862.137a0.856,0.856,0,0,0,.317.061,0.809,0.809,0,0,0,.149-0.015l0.229,0.5,1.361,2.969a0.834,0.834,0,0,0-.264.343l-3.8-.482a0.827,0.827,0,0,0-.181-0.419Zm-5.185-.572h4.679a0.814,0.814,0,0,0,.168.325l-2.209,2.944a0.867,0.867,0,0,0-.3-0.055,0.851,0.851,0,0,0-.316.061l-2.193-2.947A0.83,0.83,0,0,0,362.849,683.041Zm-0.823.633a0.86,0.86,0,0,0,.317-0.061l2.185,2.956a0.829,0.829,0,0,0-.181.417l-3.793.487a0.841,0.841,0,0,0-.264-0.346l1.587-3.467A0.907,0.907,0,0,0,362.026,683.674Zm-0.545-.2,0.018,0.014-1.587,3.468a0.918,0.918,0,0,0-.149-0.015,0.851,0.851,0,0,0-.672.329l-1.427-.609a0.754,0.754,0,0,0,.014-0.135,0.83,0.83,0,0,0-.061-0.309Zm-3.983,3.561,1.427,0.609a0.858,0.858,0,0,0-.014.135,0.828,0.828,0,0,0,.286.622l-1.75,3.285-0.049-.01-0.307-4.358A0.852,0.852,0,0,0,357.5,687.037Zm-0.805,10.372-1.395-4.22a0.841,0.841,0,0,0,.371-0.485h0.756a0.841,0.841,0,0,0,.559.589Zm-0.268-5.113h-0.742a0.838,0.838,0,0,0-.372-0.522l1.382-4.183,0.291,4.117A0.839,0.839,0,0,0,356.425,692.3Zm0.666,5.384,0.307-4.357,0.048-.01,1.632,3.068L359.2,696.6a0.823,0.823,0,0,0-.285.62,0.938,0.938,0,0,0,.013.131l-1.43.6A0.853,0.853,0,0,0,357.091,697.68Zm4.388,3.845-3.866-2.731a0.823,0.823,0,0,0,.065-0.322,0.845,0.845,0,0,0-.013-0.134l1.425-.607a0.851,0.851,0,0,0,.673.33,0.8,0.8,0,0,0,.147-0.015l1.588,3.464Zm0.864-.138a0.861,0.861,0,0,0-.317-0.062,0.919,0.919,0,0,0-.15.015l-0.342-.746-1.245-2.716a0.834,0.834,0,0,0,.266-0.352l0.92,0.112,2.872,0.35a0.822,0.822,0,0,0,.19.431l-0.371.5Zm5.185,0.572h-4.679a0.823,0.823,0,0,0-.172-0.33l2.194-2.968a0.854,0.854,0,0,0,.634,0l2.195,2.968A0.81,0.81,0,0,0,367.528,701.959Zm0.972-.619a0.906,0.906,0,0,0-.149-0.015,0.857,0.857,0,0,0-.317.062l-0.9-1.216-1.3-1.752a0.822,0.822,0,0,0,.19-0.431l2.915-.355,0.878-.107a0.839,0.839,0,0,0,.25.338l-1.519,3.359Zm0.4,0.185-0.018-.015,0.054-.119,1.534-3.345a0.809,0.809,0,0,0,.149.015,0.85,0.85,0,0,0,.667-0.323l1.847,0.779Zm2.557-4.167a0.846,0.846,0,0,0,.014-0.135,0.828,0.828,0,0,0-.283-0.619l0.984-1.827,0.8-1.485L373,693.3l0.317,4.852Zm1.964-4.086a0.839,0.839,0,0,0,.558-0.568H374.7a0.838,0.838,0,0,0,.371.5l-1.384,4.188Z" transform="translate(-354 -682)"/>
</svg>
