<svg id="group_13" data-name="group 13" xmlns="http://www.w3.org/2000/svg" width="24" height="24" viewBox="0 0 24 24">
  <metadata><?xpacket begin="﻿" id="W5M0MpCehiHzreSzNTczkc9d"?>
<x:xmpmeta xmlns:x="adobe:ns:meta/" x:xmptk="Adobe XMP Core 5.6-c138 79.159824, 2016/09/14-01:09:01        ">
   <rdf:RDF xmlns:rdf="http://www.w3.org/1999/02/22-rdf-syntax-ns#">
      <rdf:Description rdf:about=""/>
   </rdf:RDF>
</x:xmpmeta>
                                                                                                    
                                                                                                    
                                                                                                    
                                                                                                    
                                                                                                    
                                                                                                    
                                                                                                    
                                                                                                    
                                                                                                    
                                                                                                    
                                                                                                    
                                                                                                    
                                                                                                    
                                                                                                    
                                                                                                    
                                                                                                    
                                                                                                    
                                                                                                    
                                                                                                    
                                                                                                    
                           
<?xpacket end="w"?></metadata>
<defs>
    <style>
      .cls-1 {
        fill: #ffb11a;
      }

      .cls-1, .cls-2 {
        fill-rule: evenodd;
      }

      .cls-2 {
        fill: #fff;
      }
    </style>
  </defs>
  <path id="shape_2" data-name="shape 2" class="cls-1" d="M8880,1489.53a12,12,0,1,1,12-12,12,12,0,0,1-12,12h0Zm2.18-9.5a1.149,1.149,0,0,1-.48.68,0.962,0.962,0,0,1-.4.16,2.127,2.127,0,0,1-.44.07,3.82,3.82,0,0,1-.48,0c-0.17-.02-0.33-0.03-0.49-0.06-0.32-.05-0.63-0.12-0.94-0.2l-0.39-.11-0.31-.09,0.75-2.81c0.13,0.03.26,0.06,0.4,0.1a8.431,8.431,0,0,1,1.09.31,5.193,5.193,0,0,1,.59.24,3.483,3.483,0,0,1,.5.3,1.487,1.487,0,0,1,.41.38,1.331,1.331,0,0,1,.21.47,1.181,1.181,0,0,1-.02.56h0Z" transform="translate(-8868 -1465.53)"/>
  <path id="shape_2_copy" data-name="shape 2 copy" class="cls-2" d="M8885.16,1475.98a2.122,2.122,0,0,0-.05-1.04,1.9,1.9,0,0,0-.51-0.83,4.033,4.033,0,0,0-.83-0.63,6.92,6.92,0,0,0-1.11-.49l0.56-2.1-1.27-.34-0.54,2.03c-0.22-.06-0.56-0.14-1.02-0.25l0.55-2.06-1.27-.34-0.56,2.1c-0.27-.07-0.54-0.14-0.8-0.21l-1.75-.48-0.36,1.36,0.91,0.25a0.683,0.683,0,0,1,.59.76l-0.64,2.39a0.5,0.5,0,0,1,.13.05l-0.13-.04-0.89,3.34a0.463,0.463,0,0,1-.59.3l-0.92-.25-0.66,1.45,1.65,0.45,0.46,0.13c0.19,0.05.34,0.1,0.44,0.12l-0.56,2.12,1.27,0.35,0.56-2.1c0.33,0.1.67,0.19,1,.28l-0.55,2.09,1.27,0.34,0.56-2.12a10.33,10.33,0,0,0,1.24.2,4.877,4.877,0,0,0,1.08-.02,2.552,2.552,0,0,0,.93-0.27,2.317,2.317,0,0,0,.73-0.59,3.3,3.3,0,0,0,.54-0.97,2.247,2.247,0,0,0-1.11-3.13,2.038,2.038,0,0,0,1.65-1.85h0Zm-2.98,4.05a1.149,1.149,0,0,1-.48.68,0.962,0.962,0,0,1-.4.16,2.127,2.127,0,0,1-.44.07,3.82,3.82,0,0,1-.48,0c-0.17-.02-0.33-0.03-0.49-0.06-0.32-.05-0.63-0.12-0.94-0.2l-0.39-.11-0.31-.09,0.75-2.81c0.13,0.03.26,0.06,0.4,0.1a8.431,8.431,0,0,1,1.09.31,5.193,5.193,0,0,1,.59.24,3.483,3.483,0,0,1,.5.3,1.487,1.487,0,0,1,.41.38,1.331,1.331,0,0,1,.21.47,1.181,1.181,0,0,1-.02.56h0Zm0.47-4.12a1.552,1.552,0,0,1-.19.41,0.864,0.864,0,0,1-.31.26,1.657,1.657,0,0,1-.37.14,1.4,1.4,0,0,1-.44.05l-0.45-.03a3.653,3.653,0,0,1-.46-0.07c-0.19-.04-0.33-0.08-0.42-0.1-0.13-.03-0.26-0.07-0.38-0.1l-0.29-.08,0.68-2.56c0.26,0.07.52,0.13,0.78,0.2a4.261,4.261,0,0,1,.47.15,4.192,4.192,0,0,1,.49.2,2.959,2.959,0,0,1,.42.26,1.334,1.334,0,0,1,.33.34,1.261,1.261,0,0,1,.16.42,1.248,1.248,0,0,1-.02.51h0Zm0,0" transform="translate(-8868 -1465.53)"/>
</svg>
