<svg id="group_11" data-name="group 11" xmlns="http://www.w3.org/2000/svg" width="24" height="24" viewBox="0 0 24 24">
  <metadata><?xpacket begin="﻿" id="W5M0MpCehiHzreSzNTczkc9d"?>
<x:xmpmeta xmlns:x="adobe:ns:meta/" x:xmptk="Adobe XMP Core 5.6-c138 79.159824, 2016/09/14-01:09:01        ">
   <rdf:RDF xmlns:rdf="http://www.w3.org/1999/02/22-rdf-syntax-ns#">
      <rdf:Description rdf:about=""/>
   </rdf:RDF>
</x:xmpmeta>
                                                                                                    
                                                                                                    
                                                                                                    
                                                                                                    
                                                                                                    
                                                                                                    
                                                                                                    
                                                                                                    
                                                                                                    
                                                                                                    
                                                                                                    
                                                                                                    
                                                                                                    
                                                                                                    
                                                                                                    
                                                                                                    
                                                                                                    
                                                                                                    
                                                                                                    
                                                                                                    
                           
<?xpacket end="w"?></metadata>
<defs>
    <style>
      .cls-1 {
        fill: #29a8df;
      }

      .cls-1, .cls-2 {
        fill-rule: evenodd;
      }

      .cls-2 {
        fill: #fff;
      }
    </style>
  </defs>
  <path id="shape_3_copy" data-name="shape 3 copy" class="cls-1" d="M8957,1468a12,12,0,1,1-12,12,12,12,0,0,1,12-12h0Z" transform="translate(-8945 -1468)"/>
  <path id="shape_4" data-name="shape 4" class="cls-2" d="M8956.5,1487a5.538,5.538,0,0,1-1.69-.27c-0.09-2.35,2.1-4.51,3.6-5.75a5.662,5.662,0,0,0,1.68-3.35,5.317,5.317,0,0,1,1.91,3.97A5.451,5.451,0,0,1,8956.5,1487Zm0.01-7.22a8.513,8.513,0,0,0-3.29,6.15,5.334,5.334,0,0,1-.25-8.47l-0.01-.01s3.62-2.68,2.99-6.45a6.422,6.422,0,0,1,2.81,5.71C8958.7,1477.7,8958,1478.73,8956.51,1479.78Z" transform="translate(-8945 -1468)"/>
</svg>
