<svg id="group_8" data-name="group 8" xmlns="http://www.w3.org/2000/svg" width="24" height="24" viewBox="0 0 24 24">
  <metadata><?xpacket begin="﻿" id="W5M0MpCehiHzreSzNTczkc9d"?>
<x:xmpmeta xmlns:x="adobe:ns:meta/" x:xmptk="Adobe XMP Core 5.6-c138 79.159824, 2016/09/14-01:09:01        ">
   <rdf:RDF xmlns:rdf="http://www.w3.org/1999/02/22-rdf-syntax-ns#">
      <rdf:Description rdf:about=""/>
   </rdf:RDF>
</x:xmpmeta>
                                                                                                    
                                                                                                    
                                                                                                    
                                                                                                    
                                                                                                    
                                                                                                    
                                                                                                    
                                                                                                    
                                                                                                    
                                                                                                    
                                                                                                    
                                                                                                    
                                                                                                    
                                                                                                    
                                                                                                    
                                                                                                    
                                                                                                    
                                                                                                    
                                                                                                    
                                                                                                    
                           
<?xpacket end="w"?></metadata>
<defs>
    <style>
      .cls-1 {
        fill: #464646;
      }

      .cls-1, .cls-2 {
        fill-rule: evenodd;
      }

      .cls-2 {
        fill: #fff;
      }
    </style>
  </defs>
  <path id="shape_3_copy_4" data-name="shape 3 copy 4" class="cls-1" d="M9064,1471a12,12,0,1,1-12,12,12,12,0,0,1,12-12h0Z" transform="translate(-9052 -1471)"/>
  <path id="oval_3_copy_17" data-name="oval 3 copy 17" class="cls-2" d="M9068.34,1489.14l2.14,0.62a0.643,0.643,0,0,1,.48.75,0.615,0.615,0,0,1-.73.48l-3.51-1.02a7.939,7.939,0,0,1-10.15-4.69,8.315,8.315,0,0,1,4.46-10.69,7.93,7.93,0,0,1,10.4,4.59A8.36,8.36,0,0,1,9068.34,1489.14Zm-2.31-11.77a3.619,3.619,0,0,0-4.25-2.24c-0.16.05-.31,0.11-0.47,0.17a7.519,7.519,0,0,0-4.13,9.45,7.212,7.212,0,0,0,8.14,4.81l-0.65-.18a3.859,3.859,0,0,1-.58-0.17,0.689,0.689,0,0,1-.08-0.03,3.671,3.671,0,0,1-2.12-2.34,3.761,3.761,0,0,1,2.11-4.61,3.6,3.6,0,0,0,2.01-1.99A3.8,3.8,0,0,0,9066.03,1477.37Zm0.26,7.94a1.014,1.014,0,0,0-1.32-.58,1.066,1.066,0,0,0-.64.96,1.046,1.046,0,0,0,.62.97,0.985,0.985,0,0,0,1.11-.21A1.08,1.08,0,0,0,9066.29,1485.31Zm-3.65-5.51a1,1,0,0,1-.93-0.65,1.055,1.055,0,0,1,.01-0.8,0.978,0.978,0,0,1,.55-0.56,1,1,0,0,1,1.11.24,1.041,1.041,0,0,1,.2,1.14A0.994,0.994,0,0,1,9062.64,1479.8Z" transform="translate(-9052 -1471)"/>
</svg>
