<svg id="group_9" data-name="group 9" xmlns="http://www.w3.org/2000/svg" width="24" height="24" viewBox="0 0 24 24">
  <metadata><?xpacket begin="﻿" id="W5M0MpCehiHzreSzNTczkc9d"?>
<x:xmpmeta xmlns:x="adobe:ns:meta/" x:xmptk="Adobe XMP Core 5.6-c138 79.159824, 2016/09/14-01:09:01        ">
   <rdf:RDF xmlns:rdf="http://www.w3.org/1999/02/22-rdf-syntax-ns#">
      <rdf:Description rdf:about=""/>
   </rdf:RDF>
</x:xmpmeta>
                                                                                                    
                                                                                                    
                                                                                                    
                                                                                                    
                                                                                                    
                                                                                                    
                                                                                                    
                                                                                                    
                                                                                                    
                                                                                                    
                                                                                                    
                                                                                                    
                                                                                                    
                                                                                                    
                                                                                                    
                                                                                                    
                                                                                                    
                                                                                                    
                                                                                                    
                                                                                                    
                           
<?xpacket end="w"?></metadata>
<defs>
    <style>
      .cls-1 {
        fill: #5d97b6;
      }

      .cls-1, .cls-2 {
        fill-rule: evenodd;
      }

      .cls-2 {
        fill: #fff;
      }
    </style>
  </defs>
  <path id="shape_3_copy_3" data-name="shape 3 copy 3" class="cls-1" d="M9026,1470a12,12,0,1,1-12,12,12,12,0,0,1,12-12h0Z" transform="translate(-9014 -1470)"/>
  <path id="shape_6" data-name="shape 6" class="cls-2" d="M9019.5,1484a0.959,0.959,0,0,0-.12-0.27,6.3,6.3,0,0,1-.25-0.77,5.291,5.291,0,0,1,.11-2.72,6.371,6.371,0,0,1,.69-1.41,3.423,3.423,0,0,0,.78-1.33,3,3,0,0,0-.39-1.34,4.034,4.034,0,0,1,.13-2.49,1.67,1.67,0,0,1,.34-0.65,0.217,0.217,0,0,1,.12-0.02,0.181,0.181,0,0,1,.05.14,2.337,2.337,0,0,1,.04.39,2.561,2.561,0,0,0,.24.69c0.28,0.47.61,0.9,0.9,1.39a1.363,1.363,0,0,1,.2,1.15h0.07a1.433,1.433,0,0,1,.83-0.05,4.91,4.91,0,0,1,.58.17,8.941,8.941,0,0,1,1.19.76,1.5,1.5,0,0,0,.34.16,0.4,0.4,0,0,1,.29.07v0.14a4.647,4.647,0,0,1-.95.46c-0.22.08-.47,0.07-0.7,0.13a2.059,2.059,0,0,1-.75-0.04c-0.15-.03-0.31-0.01-0.44-0.03a1.612,1.612,0,0,0-.71.1,1.567,1.567,0,0,0-1.21,1.2,1.277,1.277,0,0,0,.34,1.04,3.16,3.16,0,0,0,2.62,1.06,3.041,3.041,0,0,0,.8.02c0.15-.03.38,0.01,0.56-0.02,0.29-.04.67,0,0.95-0.07h0.38c0.2-.04.45,0.02,0.68-0.03a6.391,6.391,0,0,1,1.32-.04,8.185,8.185,0,0,1,5.26,1.38,3.975,3.975,0,0,1,.9.93,2.063,2.063,0,0,1,.31.46h-0.09a1.6,1.6,0,0,0-.56-0.09,9.946,9.946,0,0,1-.68,1.15c-0.11.12-.22,0.24-0.34,0.36a2.631,2.631,0,0,1-.58.52,8,8,0,0,1-1.88,1.12c-0.27.1-.52,0.15-0.8,0.24-0.45.15-.96,0.21-1.45,0.32a1.507,1.507,0,0,1-.6,0,1.388,1.388,0,0,0,.48-0.07l0.34-.03c0.31-.09.67-0.15,0.95-0.25,0.18-.06.33-0.06,0.5-0.12,0.32-.13.65-0.25,0.97-0.39a6.38,6.38,0,0,0,3.04-2.83,1.37,1.37,0,0,0-.3-0.02,4.519,4.519,0,0,1-.67.09,5.636,5.636,0,0,1-2.28,2.07,3.812,3.812,0,0,1-1.12.51v-0.03a0.591,0.591,0,0,0,.24-0.11,8.179,8.179,0,0,0,.78-0.41,6.141,6.141,0,0,0,1.82-1.44,3.318,3.318,0,0,0,.44-0.55h-0.1a0.587,0.587,0,0,1-.2.05c-0.19.07-.41,0.11-0.6,0.2a7.512,7.512,0,0,0-1.27.63c-1.2.77-2.3,1.67-3.58,2.38a8.556,8.556,0,0,1-1.19.55c-0.22.09-.42,0.11-0.64,0.2,0.01,0.01,0,0,.03.01a3.1,3.1,0,0,0,.78.09,3.952,3.952,0,0,0,1.19.02h0.43c0.18-.04.42-0.03,0.59-0.07s0.31,0.01.48-.04c0.49-.12,1-0.17,1.46-0.31,1.77-.56,3.61-1.65,4.27-3.32h0.02v0.07a0.656,0.656,0,0,0-.08.21,5.953,5.953,0,0,1-.31.55,6.455,6.455,0,0,1-1.45,1.5,9.922,9.922,0,0,1-3.11,1.37c-0.38.12-.78,0.11-1.17,0.2-0.12,0-.23.01-0.34,0.02s-0.3.02-.41,0.05h-0.36a4.086,4.086,0,0,1-1.26-.02h-0.2c-0.35-.08-0.72-0.12-1.04-0.19a1.312,1.312,0,0,0-.53.07c-0.14.03-.29,0.01-0.41,0.03h-0.34a6.291,6.291,0,0,1-1.19-.1v-0.07a3.561,3.561,0,0,0,.8-0.52h-0.02a1.893,1.893,0,0,0-.35-0.17,8.33,8.33,0,0,1-.8-0.51,7.119,7.119,0,0,1-1.5-1.45c-0.1-.14-0.24-0.25-0.34-0.39-0.26-.37-0.5-0.76-0.73-1.15A3.75,3.75,0,0,0,9019.5,1484Zm0.07,0.03a3.618,3.618,0,0,0,.58.96,9.055,9.055,0,0,0,2.34,2.36c0.26,0.18.52,0.32,0.8,0.48a0.994,0.994,0,0,0,.43.19,1.446,1.446,0,0,1,.36-0.28,6.345,6.345,0,0,0,.64-0.63,0.979,0.979,0,0,0,.31-0.39,1.483,1.483,0,0,1-.37-0.29,4.72,4.72,0,0,0-.89-0.47c-0.85-.34-1.9-0.42-2.72-0.8a5.4,5.4,0,0,1-1.19-.77C9019.76,1484.27,9019.66,1484.15,9019.57,1484.03Z" transform="translate(-9014 -1470)"/>
</svg>
