<svg id="组_10" data-name="组 10" xmlns="http://www.w3.org/2000/svg" width="24" height="24" viewBox="0 0 24 24">
  <metadata><?xpacket begin="﻿" id="W5M0MpCehiHzreSzNTczkc9d"?>
<x:xmpmeta xmlns:x="adobe:ns:meta/" x:xmptk="Adobe XMP Core 5.6-c138 79.159824, 2016/09/14-01:09:01        ">
   <rdf:RDF xmlns:rdf="http://www.w3.org/1999/02/22-rdf-syntax-ns#">
      <rdf:Description rdf:about=""/>
   </rdf:RDF>
</x:xmpmeta>
                                                                                                    
                                                                                                    
                                                                                                    
                                                                                                    
                                                                                                    
                                                                                                    
                                                                                                    
                                                                                                    
                                                                                                    
                                                                                                    
                                                                                                    
                                                                                                    
                                                                                                    
                                                                                                    
                                                                                                    
                                                                                                    
                                                                                                    
                                                                                                    
                                                                                                    
                                                                                                    
                           
<?xpacket end="w"?></metadata>
<defs>
    <style>
      .cls-1 {
        fill: #e4161e;
      }

      .cls-1, .cls-2 {
        fill-rule: evenodd;
      }

      .cls-2 {
        fill: #fff;
      }
    </style>
  </defs>
  <path id="形状_3_拷贝_2" data-name="形状 3 拷贝 2" class="cls-1" d="M8988,1470a12,12,0,1,1-12,12,12,12,0,0,1,12-12h0Z" transform="translate(-8976 -1470)"/>
  <path id="形状_5" data-name="形状 5" class="cls-2" d="M8993.25,1480.83l-3.13,3.59a2.733,2.733,0,0,1-4.09,0l-0.45-.48,1.21-1.36a1.7,1.7,0,0,0,1.22.52,1.663,1.663,0,0,0,1.21-.52l2.17-2.23a1.546,1.546,0,0,0-1.11-2.62h-4.48a1.538,1.538,0,0,0-1.35.86,1.581,1.581,0,0,0,.14,1.61l-1.26,1.24-0.57-.61a2.893,2.893,0,0,1,2.12-4.83h6.2A2.885,2.885,0,0,1,8993.25,1480.83Zm-7.34-1.21a2.736,2.736,0,0,1,2.04-.91,2.774,2.774,0,0,1,2.05.91l0.43,0.48-1.21,1.39v-0.08a1.7,1.7,0,0,0-2.43,0l-2.14,2.24a1.553,1.553,0,0,0,1.12,2.61h4.48a1.558,1.558,0,0,0,1.36-.86,1.581,1.581,0,0,0-.14-1.61l1.24-1.25,0.51,0.61a2.889,2.889,0,0,1-2.14,4.85h-6.2a2.892,2.892,0,0,1-2.12-4.85Z" transform="translate(-8976 -1470)"/>
</svg>
