<svg id="组_1" data-name="组 1" xmlns="http://www.w3.org/2000/svg" width="118" height="118" viewBox="0 0 118 118">
  <metadata><?xpacket begin="﻿" id="W5M0MpCehiHzreSzNTczkc9d"?>
<x:xmpmeta xmlns:x="adobe:ns:meta/" x:xmptk="Adobe XMP Core 5.6-c138 79.159824, 2016/09/14-01:09:01        ">
   <rdf:RDF xmlns:rdf="http://www.w3.org/1999/02/22-rdf-syntax-ns#">
      <rdf:Description rdf:about=""/>
   </rdf:RDF>
</x:xmpmeta>
                                                                                                    
                                                                                                    
                                                                                                    
                                                                                                    
                                                                                                    
                                                                                                    
                                                                                                    
                                                                                                    
                                                                                                    
                                                                                                    
                                                                                                    
                                                                                                    
                                                                                                    
                                                                                                    
                                                                                                    
                                                                                                    
                                                                                                    
                                                                                                    
                                                                                                    
                                                                                                    
                           
<?xpacket end="w"?></metadata>
<defs>
    <style>
      .cls-1 {
        fill: #fff;
      }

      .cls-1, .cls-2 {
        fill-rule: evenodd;
      }

      .cls-2 {
        fill: #ff9a01;
      }
    </style>
  </defs>
  <path id="T" class="cls-1" d="M828.612,210.913q-0.677,6.79,7.381,6.446h2.013v3.392H807.14v-3.392h3.02q7.046,0,6.71-6.446V171.221h-4.852q-5.033,0-6.375,1.7-1.344,1.359-2.684,8.481h-3.69l1.677-16.284h2.684a7.015,7.015,0,0,0,1.678,1.357,7.3,7.3,0,0,0,2.348.339H838.6a3.856,3.856,0,0,0,4.026-1.7h3.02l1.342,16.284h-3.355q-1.345-7.124-2.684-8.481-1.345-1.694-6.71-1.7h-5.626v39.692Z" transform="translate(-742.5 -134.5)"/>
  <path id="形状_5" data-name="形状 5" class="cls-2" d="M809.325,178.311c0.626,6.315-2.063,10.113-6.287,12.249,7.006,1.662,11.424,5.793,10.558,15.052-1.1,11.537-9.743,14.624-22.125,15.288v12.1H784.08V221.087c-1.871,0-3.838,0-5.854-.049v11.967h-7.39V220.9c-1.726,0-3.457-.05-5.23-0.05H756l1.486-8.69a41.1,41.1,0,0,0,5.326,0,2.619,2.619,0,0,0,2.785-2.42V190.653h0.767a4.772,4.772,0,0,0-.767-0.047V176.98c-0.29-1.522-1.248-3.228-4.275-3.228a42.451,42.451,0,0,0-5.325,0v-7.783l10.179,0.047c1.484,0,3.069,0,4.654-.047V154h7.391v11.727q2.923-.087,5.853-0.1V154h7.391v11.967c9.5,0.808,17.039,3.7,17.851,12.342h0.006Zm-10.317,25.878c0-9.4-15.647-8.026-20.638-8.026v16.05c4.991,0,20.638,1.044,20.638-8.027v0Zm-3.405-22.6c0-8.594-13.054-7.315-17.23-7.315v14.581c4.176,0,17.23.951,17.23-7.266h0Zm0,0" transform="translate(-742.5 -134.5)"/>
</svg>
