<svg xmlns="http://www.w3.org/2000/svg" width="118" height="73" viewBox="0 0 118 73">
  <metadata><?xpacket begin="﻿" id="W5M0MpCehiHzreSzNTczkc9d"?>
<x:xmpmeta xmlns:x="adobe:ns:meta/" x:xmptk="Adobe XMP Core 5.6-c138 79.159824, 2016/09/14-01:09:01        ">
   <rdf:RDF xmlns:rdf="http://www.w3.org/1999/02/22-rdf-syntax-ns#">
      <rdf:Description rdf:about=""/>
   </rdf:RDF>
</x:xmpmeta>
                                                                                                    
                                                                                                    
                                                                                                    
                                                                                                    
                                                                                                    
                                                                                                    
                                                                                                    
                                                                                                    
                                                                                                    
                                                                                                    
                                                                                                    
                                                                                                    
                                                                                                    
                                                                                                    
                                                                                                    
                                                                                                    
                                                                                                    
                                                                                                    
                                                                                                    
                                                                                                    
                           
<?xpacket end="w"?></metadata>
<defs>
    <style>
      .cls-1 {
        fill: #fff;
        fill-rule: evenodd;
      }
    </style>
  </defs>
  <path id="shape_2" data-name="shape 2" class="cls-1" d="M494.5,162.577a72.908,72.908,0,0,0-34.9,8.746c7.906-7,21.642-11.051,21.642-11.051L479.965,159c-12.938.238-24.679,9.142-24.679,9.142-13.177,27.35-12.3,51.042-12.3,51.042a33.356,33.356,0,0,0,26.675,12.8l5.43-6.837c-9.583-2.068-15.654-10.5-15.654-10.5a67.742,67.742,0,0,0,70.122,0s-6.071,8.507-15.654,10.5l5.43,6.837a33.439,33.439,0,0,0,26.675-12.8s0.879-23.613-12.379-51.042c0,0-11.74-8.9-24.678-9.142l-1.277,1.272s13.816,4.054,21.642,11.051c0.16,0-14.3-8.746-34.82-8.746m-15.814,28.86c4.952,0,9.025,4.373,8.946,9.7,0,5.247-3.994,9.7-8.946,9.7-4.871,0-8.864-4.452-8.864-9.7,0-5.326,3.833-9.7,8.864-9.7m31.946,0c4.952,0,8.945,4.373,8.945,9.7,0,5.247-3.993,9.7-8.945,9.7-4.872,0-8.864-4.452-8.864-9.7,0-5.326,3.833-9.7,8.864-9.7h0Zm0,0" transform="translate(-435.5 -159)"/>
</svg>
