<svg xmlns="http://www.w3.org/2000/svg" width="28" height="28" viewBox="0 0 28 28">
  <metadata><?xpacket begin="﻿" id="W5M0MpCehiHzreSzNTczkc9d"?>
<x:xmpmeta xmlns:x="adobe:ns:meta/" x:xmptk="Adobe XMP Core 5.6-c138 79.159824, 2016/09/14-01:09:01        ">
   <rdf:RDF xmlns:rdf="http://www.w3.org/1999/02/22-rdf-syntax-ns#">
      <rdf:Description rdf:about=""/>
   </rdf:RDF>
</x:xmpmeta>
                                                                                                    
                                                                                                    
                                                                                                    
                                                                                                    
                                                                                                    
                                                                                                    
                                                                                                    
                                                                                                    
                                                                                                    
                                                                                                    
                                                                                                    
                                                                                                    
                                                                                                    
                                                                                                    
                                                                                                    
                                                                                                    
                                                                                                    
                                                                                                    
                                                                                                    
                                                                                                    
                           
<?xpacket end="w"?></metadata>
<defs>
    <style>
      .cls-1 {
        fill: #fff;
        fill-rule: evenodd;
      }
    </style>
  </defs>
  <path id="形状_16" data-name="形状 16" class="cls-1" d="M2170.49,3595.92c0.93-1.7-.13-3.92-0.13-3.92a6.737,6.737,0,0,0-4.13,1.57c-0.93-.52-4-0.52-4-0.52s-3.06,0-3.99.52a6.737,6.737,0,0,0-4.13-1.57s-1.06,2.22-.13,3.92c0,0-2.13,1.96-1.33,6.14,0.75,3.93,4.26,4.97,6.52,4.97a2.54,2.54,0,0,0-.8,2.09,3.366,3.366,0,0,1-2.66.26,4.243,4.243,0,0,1-2-1.83s-1.33-1.7-2.66-1.04c0,0-.4.39,1.07,1.04a22.066,22.066,0,0,1,1.46,2.48c0.4,0.92,2.53,1.7,4.66,1.18v3.01s0,0.26-.53.39-0.54.39-.27,0.39h9.59c0.26,0,.26-0.26-0.27-0.39s-0.53-.39-0.53-0.39v-3.01s0.01-1.57,0-2.09a3.039,3.039,0,0,0-.93-2.09c2.26,0,5.77-1.04,6.52-4.97,0.8-4.18-1.33-6.14-1.33-6.14h0Zm0,0" transform="translate(-2147.5 -3589.5)"/>
</svg>
