<svg xmlns="http://www.w3.org/2000/svg" width="118" height="68" viewBox="0 0 118 68">
  <metadata><?xpacket begin="﻿" id="W5M0MpCehiHzreSzNTczkc9d"?>
<x:xmpmeta xmlns:x="adobe:ns:meta/" x:xmptk="Adobe XMP Core 5.6-c138 79.159824, 2016/09/14-01:09:01        ">
   <rdf:RDF xmlns:rdf="http://www.w3.org/1999/02/22-rdf-syntax-ns#">
      <rdf:Description rdf:about=""/>
   </rdf:RDF>
</x:xmpmeta>
                                                                                                    
                                                                                                    
                                                                                                    
                                                                                                    
                                                                                                    
                                                                                                    
                                                                                                    
                                                                                                    
                                                                                                    
                                                                                                    
                                                                                                    
                                                                                                    
                                                                                                    
                                                                                                    
                                                                                                    
                                                                                                    
                                                                                                    
                                                                                                    
                                                                                                    
                                                                                                    
                           
<?xpacket end="w"?></metadata>
<defs>
    <style>
      .cls-1 {
        fill: #fff;
        fill-rule: evenodd;
      }
    </style>
  </defs>
  <path id="形状_3" data-name="形状 3" class="cls-1" d="M610.16,158h32.264v0.638l10.542,38.949h0.958C653.143,205.319,664.466,158,664.466,158H696.73v9.577l-0.319.32a21.984,21.984,0,0,0-4.472.319c-1.826,3.113-1.278,9.37-1.278,14.366v31.925c0.8,0.626.805,1.188,1.917,1.6,1.157,0.846,2.932.146,3.833,0.639,1.073,1.671.362,6.87,0.319,9.258H666.383c-0.043-2.943-.486-7.209.319-9.577a19.775,19.775,0,0,0,5.431.319c1.215-3.685.319-10.034,0.319-14.366V171.728l-0.319-.32a1.684,1.684,0,0,0-.32.639L656.48,225.681l-11.5.319-15.014-54.592-0.32.32c-1.012,1.63-.319,9.795-0.319,12.45v32.245h0.639c1.051,0.72,4.654.4,5.75,0V226H610.16c-0.043-2.943-.486-7.209.319-9.577,1.587,0.574,3.056.037,4.472-.32a8,8,0,0,1,1.278-1.6v-29.69c0-5.036.539-11.164-.319-15.643-1.623-.981-2.8-1.323-5.75-1.277V158Z" transform="translate(-594.5 -158)"/>
</svg>
