<svg xmlns="http://www.w3.org/2000/svg" width="28" height="28" viewBox="0 0 28 28">
  <metadata><?xpacket begin="﻿" id="W5M0MpCehiHzreSzNTczkc9d"?>
<x:xmpmeta xmlns:x="adobe:ns:meta/" x:xmptk="Adobe XMP Core 5.6-c138 79.159824, 2016/09/14-01:09:01        ">
   <rdf:RDF xmlns:rdf="http://www.w3.org/1999/02/22-rdf-syntax-ns#">
      <rdf:Description rdf:about=""/>
   </rdf:RDF>
</x:xmpmeta>
                                                                                                    
                                                                                                    
                                                                                                    
                                                                                                    
                                                                                                    
                                                                                                    
                                                                                                    
                                                                                                    
                                                                                                    
                                                                                                    
                                                                                                    
                                                                                                    
                                                                                                    
                                                                                                    
                                                                                                    
                                                                                                    
                                                                                                    
                                                                                                    
                                                                                                    
                                                                                                    
                           
<?xpacket end="w"?></metadata>
<defs>
    <style>
      .cls-1 {
        fill: #fff;
        fill-rule: evenodd;
      }
    </style>
  </defs>
  <path id="shape_15" data-name="shape 15" class="cls-1" d="M2125,3601.68a3.257,3.257,0,0,0-3.22-3.28,3.166,3.166,0,0,0-2.08.79l-0.05.03a15.887,15.887,0,0,0-7.96-2.35l1.84-5.3,4.58,1.11a2.635,2.635,0,1,0,2.63-2.68,2.622,2.622,0,0,0-2.43,1.67l-5.43-1.32-2.26,6.51a15.918,15.918,0,0,0-8.29,2.35,3.155,3.155,0,0,0-2.1-.81,3.25,3.25,0,0,0-3.22,3.28,3.3,3.3,0,0,0,1.48,2.75,6.392,6.392,0,0,0-.09.99c0,4.73,5.64,8.57,12.58,8.57s12.58-3.84,12.58-8.57a6.247,6.247,0,0,0-.09-0.97,3.27,3.27,0,0,0,1.53-2.77h0Zm-9.74,4.24a2.015,2.015,0,1,1,1.98-2.02,2,2,0,0,1-1.98,2.02h0Zm0.39,3.43a6.53,6.53,0,0,1-4.69,1.53c-3.24,0-4.53-1.49-4.58-1.55a0.527,0.527,0,0,1-.12-0.38,0.511,0.511,0,0,1,.89-0.3c0.03,0.04,1.1,1.2,3.81,1.2a5.708,5.708,0,0,0,3.96-1.22,0.507,0.507,0,0,1,.72,0,0.526,0.526,0,0,1,.01.72h0ZM2105,3603.9a1.985,1.985,0,1,1,1.98,2.02,2,2,0,0,1-1.98-2.02h0Zm0,0" transform="translate(-2097 -3588)"/>
</svg>
