<svg xmlns="http://www.w3.org/2000/svg" width="28" height="28" viewBox="0 0 28 28">
  <metadata><?xpacket begin="﻿" id="W5M0MpCehiHzreSzNTczkc9d"?>
<x:xmpmeta xmlns:x="adobe:ns:meta/" x:xmptk="Adobe XMP Core 5.6-c138 79.159824, 2016/09/14-01:09:01        ">
   <rdf:RDF xmlns:rdf="http://www.w3.org/1999/02/22-rdf-syntax-ns#">
      <rdf:Description rdf:about=""/>
   </rdf:RDF>
</x:xmpmeta>
                                                                                                    
                                                                                                    
                                                                                                    
                                                                                                    
                                                                                                    
                                                                                                    
                                                                                                    
                                                                                                    
                                                                                                    
                                                                                                    
                                                                                                    
                                                                                                    
                                                                                                    
                                                                                                    
                                                                                                    
                                                                                                    
                                                                                                    
                                                                                                    
                                                                                                    
                                                                                                    
                           
<?xpacket end="w"?></metadata>
<defs>
    <style>
      .cls-1 {
        fill: #fff;
        fill-rule: evenodd;
      }
    </style>
  </defs>
  <path id="shape_14" data-name="shape 14" class="cls-1" d="M2048,3610.47a10,10,0,0,0,1.22.08,9.779,9.779,0,0,0,6.37-2.38,5.256,5.256,0,0,1-4.79-3.92,6.126,6.126,0,0,0,.97.11,5,5,0,0,0,1.35-.19,5.581,5.581,0,0,1-4.12-5.55v-0.07a4.81,4.81,0,0,0,2.33.73,5.83,5.83,0,0,1-2.28-4.71,5.932,5.932,0,0,1,.69-2.81,14.408,14.408,0,0,0,10.57,6,5.977,5.977,0,0,1-.13-1.28,5.266,5.266,0,0,1,5.13-5.49,5.071,5.071,0,0,1,3.74,1.82,9.634,9.634,0,0,0,3.26-1.29,5.382,5.382,0,0,1-2.26,3.02,9.508,9.508,0,0,0,2.95-.82,10.641,10.641,0,0,1-2.56,2.82c0.01,0.24.01,0.48,0.01,0.72,0,7.31-5.16,15.74-14.59,15.74a13.587,13.587,0,0,1-7.86-2.53h0Zm0,0" transform="translate(-2046.5 -3588)"/>
</svg>
