<svg id="组_3" data-name="组 3" xmlns="http://www.w3.org/2000/svg" width="102.84" height="103" viewBox="0 0 102.84 103">
  <metadata><?xpacket begin="﻿" id="W5M0MpCehiHzreSzNTczkc9d"?>
<x:xmpmeta xmlns:x="adobe:ns:meta/" x:xmptk="Adobe XMP Core 5.6-c138 79.159824, 2016/09/14-01:09:01        ">
   <rdf:RDF xmlns:rdf="http://www.w3.org/1999/02/22-rdf-syntax-ns#">
      <rdf:Description rdf:about=""/>
   </rdf:RDF>
</x:xmpmeta>
                                                                                                    
                                                                                                    
                                                                                                    
                                                                                                    
                                                                                                    
                                                                                                    
                                                                                                    
                                                                                                    
                                                                                                    
                                                                                                    
                                                                                                    
                                                                                                    
                                                                                                    
                                                                                                    
                                                                                                    
                                                                                                    
                                                                                                    
                                                                                                    
                                                                                                    
                                                                                                    
                           
<?xpacket end="w"?></metadata>
<defs>
    <style>
      .cls-1 {
        fill: #2d61f6;
      }

      .cls-1, .cls-2 {
        fill-rule: evenodd;
      }

      .cls-2 {
        fill: #fff;
      }
    </style>
  </defs>
  <path id="椭圆_1_拷贝_5" data-name="椭圆 1 拷贝 5" class="cls-1" d="M2043.43,1985a51.5,51.5,0,1,1,51.43-51.5A51.469,51.469,0,0,1,2043.43,1985ZM2043,1885c-26.51,0-48,21.71-48,48.5s21.49,48.5,48,48.5,48-21.71,48-48.5S2069.51,1885,2043,1885Z" transform="translate(-1992 -1882)"/>
  <path id="形状_7" data-name="形状 7" class="cls-2" d="M2059.9,1954.57h-10.69l-4.49,3.26a2.751,2.751,0,0,1-1.26.3,2.78,2.78,0,0,1-1.2-.28l-0.22-.13-4.64-3.15h-10.37a5.5,5.5,0,0,1-5.48-5.51v-33.78a5.488,5.488,0,0,1,5.48-5.51h9.13a1.835,1.835,0,0,1,0,3.67h-9.13a1.833,1.833,0,0,0-1.83,1.84v33.78a1.831,1.831,0,0,0,1.83,1.83h10.4a3.67,3.67,0,0,1,1.62.38l0.21,0.13,4.2,2.85,4.07-2.95a3.62,3.62,0,0,1,1.64-.41h10.73a1.831,1.831,0,0,0,1.83-1.83v-33.78a1.833,1.833,0,0,0-1.83-1.84h-12.78a1.833,1.833,0,0,0-1.83,1.84v30.1a1.825,1.825,0,1,1-3.65,0v-30.1a5.488,5.488,0,0,1,5.48-5.51h12.78a5.488,5.488,0,0,1,5.48,5.51v33.78A5.5,5.5,0,0,1,2059.9,1954.57Zm-23.74-30.11h-5.48a1.835,1.835,0,0,1,0-3.67h5.48A1.835,1.835,0,0,1,2036.16,1924.46Zm0,7.35h-5.48a1.835,1.835,0,0,1,0-3.67h5.48A1.835,1.835,0,0,1,2036.16,1931.81Z" transform="translate(-1992 -1882)"/>
</svg>
