<svg xmlns="http://www.w3.org/2000/svg" width="558.88" height="581.031" viewBox="0 0 558.88 581.031">
  <metadata><?xpacket begin="﻿" id="W5M0MpCehiHzreSzNTczkc9d"?>
<x:xmpmeta xmlns:x="adobe:ns:meta/" x:xmptk="Adobe XMP Core 5.6-c138 79.159824, 2016/09/14-01:09:01        ">
   <rdf:RDF xmlns:rdf="http://www.w3.org/1999/02/22-rdf-syntax-ns#">
      <rdf:Description rdf:about=""/>
   </rdf:RDF>
</x:xmpmeta>





















<?xpacket end="w"?></metadata>
<defs>
    <style>
      .cls-1 {
        fill: #fff;
        fill-rule: evenodd;
        opacity: 0.1;
      }
    </style>
  </defs>
  <path id="椭圆_3_拷贝_18" data-name="椭圆 3 拷贝 18" class="cls-1" d="M1625.96,810.547l74.82,21.211a21.59,21.59,0,0,1,16.71,25.407,21.3,21.3,0,0,1-25.41,16.394l-122.79-34.806c-141.1,51.384-298.27-18.839-354.36-160.127-57.08-144.219,12.61-307.72,155.78-365.483,143.29-57.626,305.87,12.57,363.12,156.8C1784.28,597.005,1736.12,739.124,1625.96,810.547ZM1545.17,408.2c-23.49-59.138-86.66-91.844-148.12-76.695q-8.385,2.709-16.66,6.03c-126.68,51-190.47,193.816-144.29,323.03,42.52,118.923,164.12,186.981,284.51,164.392l-22.87-6.485a126.05,126.05,0,0,1-20.2-5.7,22.48,22.48,0,0,1-2.84-1.08,127.268,127.268,0,0,1-74.06-79.719c-20.38-63.9,11.83-132.775,73.74-157.695A126.1,126.1,0,0,0,1545.17,408.2Zm9.31,271.475a35.633,35.633,0,1,0-8.19,38.856A35.94,35.94,0,0,0,1554.48,679.674Zm-127.65-188.3a35.528,35.528,0,0,1-32.53-22.484,35.817,35.817,0,0,1,19.8-46.457,35.364,35.364,0,0,1,38.61,8.236,35.947,35.947,0,0,1,7.21,39.053A35.53,35.53,0,0,1,1426.83,491.369Z" transform="translate(-1195 -293)"/>
</svg>
