<svg xmlns="http://www.w3.org/2000/svg" width="80" height="76" viewBox="0 0 80 76">
  <metadata><?xpacket begin="﻿" id="W5M0MpCehiHzreSzNTczkc9d"?>
<x:xmpmeta xmlns:x="adobe:ns:meta/" x:xmptk="Adobe XMP Core 5.6-c138 79.159824, 2016/09/14-01:09:01        ">
   <rdf:RDF xmlns:rdf="http://www.w3.org/1999/02/22-rdf-syntax-ns#">
      <rdf:Description rdf:about=""/>
   </rdf:RDF>
</x:xmpmeta>
                                                                                                    
                                                                                                    
                                                                                                    
                                                                                                    
                                                                                                    
                                                                                                    
                                                                                                    
                                                                                                    
                                                                                                    
                                                                                                    
                                                                                                    
                                                                                                    
                                                                                                    
                                                                                                    
                                                                                                    
                                                                                                    
                                                                                                    
                                                                                                    
                                                                                                    
                                                                                                    
                           
<?xpacket end="w"?></metadata>
<defs>
    <style>
      .cls-1 {
        fill: #2d61f6;
        fill-rule: evenodd;
      }
    </style>
  </defs>
  <path id="形状_2" data-name="形状 2" class="cls-1" d="M2001.33,1145.66l-14.64,8.87a1.538,1.538,0,0,1-1.7-.08c-0.07-.02-14.58-8.79-14.58-8.79a1.41,1.41,0,0,1-.69-1.22v-15.86a1.944,1.944,0,0,1,1.3-1.8l14.22-7.17a1.42,1.42,0,0,1,1.24,0l14.24,7.17h-0.11a0.318,0.318,0,0,1,.13.02l0.37,0.18a1.408,1.408,0,0,1,.89,1.2v16.26A1.436,1.436,0,0,1,2001.33,1145.66Zm-28.82-2.01,11.97,7.28V1137.4l-11.97-6.83v13.08Zm13.36-21.21-11.67,5.87,11.67,6.68,11.66-6.68Zm13.34,8.14-11.95,6.83v13.5l11.95-7.26v-13.07Zm-39.32,25.07,10.94-6.38,1.34,2.35-12.28,7.16v0.18h-0.31l-1.77,1.04L1924,1138.23V1101.9l34.98-17.9h0l35.57,19.71-34.66,16.47v35.47Zm-33.2-18.91,30.51,19.65v-35.55l-30.51-15.62v31.52Zm61.93-33.22-29.69-16.45-30.88,15.8,29.81,15.27Zm-58.72,7.21,22.81,11.92v27.96l-22.81-14.95v-24.93Z" transform="translate(-1923 -1084)"/>
</svg>
