<svg id="组_5" data-name="组 5" xmlns="http://www.w3.org/2000/svg" width="102.84" height="103" viewBox="0 0 102.84 103">
  <metadata><?xpacket begin="﻿" id="W5M0MpCehiHzreSzNTczkc9d"?>
<x:xmpmeta xmlns:x="adobe:ns:meta/" x:xmptk="Adobe XMP Core 5.6-c138 79.159824, 2016/09/14-01:09:01        ">
   <rdf:RDF xmlns:rdf="http://www.w3.org/1999/02/22-rdf-syntax-ns#">
      <rdf:Description rdf:about=""/>
   </rdf:RDF>
</x:xmpmeta>
                                                                                                    
                                                                                                    
                                                                                                    
                                                                                                    
                                                                                                    
                                                                                                    
                                                                                                    
                                                                                                    
                                                                                                    
                                                                                                    
                                                                                                    
                                                                                                    
                                                                                                    
                                                                                                    
                                                                                                    
                                                                                                    
                                                                                                    
                                                                                                    
                                                                                                    
                                                                                                    
                           
<?xpacket end="w"?></metadata>
<defs>
    <style>
      .cls-1 {
        fill: #2d61f6;
      }

      .cls-1, .cls-2 {
        fill-rule: evenodd;
      }

      .cls-2 {
        fill: #fff;
      }
    </style>
  </defs>
  <path id="椭圆_1_拷贝_3" data-name="椭圆 1 拷贝 3" class="cls-1" d="M965.429,1985a51.5,51.5,0,1,1,51.431-51.5A51.467,51.467,0,0,1,965.429,1985ZM965,1885c-26.51,0-48,21.71-48,48.5s21.49,48.5,48,48.5,48-21.71,48-48.5S991.51,1885,965,1885Z" transform="translate(-914 -1882)"/>
  <path id="形状_5" data-name="形状 5" class="cls-2" d="M977.961,1958.13H956.475a11.182,11.182,0,0,1-11.17-11.17v-28.71a11.182,11.182,0,0,1,11.17-11.17h21.492a11.175,11.175,0,0,1,11.165,11.17v28.71A11.183,11.183,0,0,1,977.961,1958.13Zm7.523-39.54a7.988,7.988,0,0,0-7.979-7.98H956.932a7.989,7.989,0,0,0-7.98,7.98v21.37h36.532v-21.37Zm0.012,24.96H948.958v3.02a7.987,7.987,0,0,0,7.98,7.97l20.572-.06a7.935,7.935,0,0,0,7.98-7.91H985.5v-3.02Zm-14.659,7.29h-7.294a1.806,1.806,0,1,1,0-3.59h7.294a1.7,1.7,0,0,1,1.941,1.71A1.759,1.759,0,0,1,970.837,1950.84Z" transform="translate(-914 -1882)"/>
</svg>
