<svg id="group_4" data-name="group 4" xmlns="http://www.w3.org/2000/svg" width="102.84" height="103" viewBox="0 0 102.84 103">
  <metadata><?xpacket begin="﻿" id="W5M0MpCehiHzreSzNTczkc9d"?>
<x:xmpmeta xmlns:x="adobe:ns:meta/" x:xmptk="Adobe XMP Core 5.6-c138 79.159824, 2016/09/14-01:09:01        ">
   <rdf:RDF xmlns:rdf="http://www.w3.org/1999/02/22-rdf-syntax-ns#">
      <rdf:Description rdf:about=""/>
   </rdf:RDF>
</x:xmpmeta>
                                                                                                    
                                                                                                    
                                                                                                    
                                                                                                    
                                                                                                    
                                                                                                    
                                                                                                    
                                                                                                    
                                                                                                    
                                                                                                    
                                                                                                    
                                                                                                    
                                                                                                    
                                                                                                    
                                                                                                    
                                                                                                    
                                                                                                    
                                                                                                    
                                                                                                    
                                                                                                    
                           
<?xpacket end="w"?></metadata>
<defs>
    <style>
      .cls-1 {
        fill: #fff;
      }

      .cls-1, .cls-2 {
        fill-rule: evenodd;
      }

      .cls-2 {
        fill: #2d61f6;
      }
    </style>
  </defs>
  <path id="shape_6" data-name="shape 6" class="cls-1" d="M1535.81,1909.76a3.166,3.166,0,0,1,3.18,2.95l0.01,0.2v12.7a1.838,1.838,0,0,1-3.67.18l-0.01-.18v-12.12H1497.6v40.02h37.72v-8.49a1.848,1.848,0,0,1,1.66-1.85l0.18-.01a1.846,1.846,0,0,1,1.83,1.68l0.01,0.18v9.07a3.164,3.164,0,0,1-2.99,3.14h-38.9a3.164,3.164,0,0,1-3.18-2.94v-41.38a3.163,3.163,0,0,1,2.98-3.14l0.2-.01h38.7Zm11.31,14.59a1.89,1.89,0,0,1,0,2.5l-0.13.13-21.91,20.09a2.087,2.087,0,0,1-2.68.11l-0.16-.13-8.77-8.19a1.887,1.887,0,0,1-.17-2.57,1.824,1.824,0,0,1,2.52-.29l0.15,0.12,7.71,7.21,20.84-19.11a1.816,1.816,0,0,1,2.59.13h0.01Zm-30.66,2.63a1.866,1.866,0,0,1,.18,3.72l-0.18.01H1505.8a1.866,1.866,0,0,1-.18-3.72l0.18-.01h10.66Zm9.7-7.82a1.865,1.865,0,0,1,.18,3.72H1505.8a1.86,1.86,0,0,1-.18-3.71l0.18-.01h20.36Z" transform="translate(-1465 -1882)"/>
  <path id="oval_1_copy_4" data-name="oval 1 copy 4" class="cls-2" d="M1516.43,1985a51.5,51.5,0,1,1,51.43-51.5A51.469,51.469,0,0,1,1516.43,1985ZM1516,1885c-26.51,0-48,21.71-48,48.5s21.49,48.5,48,48.5,48-21.71,48-48.5S1542.51,1885,1516,1885Z" transform="translate(-1465 -1882)"/>
</svg>
