<svg xmlns="http://www.w3.org/2000/svg" width="80" height="66" viewBox="0 0 80 66">
  <metadata><?xpacket begin="﻿" id="W5M0MpCehiHzreSzNTczkc9d"?>
<x:xmpmeta xmlns:x="adobe:ns:meta/" x:xmptk="Adobe XMP Core 5.6-c138 79.159824, 2016/09/14-01:09:01        ">
   <rdf:RDF xmlns:rdf="http://www.w3.org/1999/02/22-rdf-syntax-ns#">
      <rdf:Description rdf:about=""/>
   </rdf:RDF>
</x:xmpmeta>
                                                                                                    
                                                                                                    
                                                                                                    
                                                                                                    
                                                                                                    
                                                                                                    
                                                                                                    
                                                                                                    
                                                                                                    
                                                                                                    
                                                                                                    
                                                                                                    
                                                                                                    
                                                                                                    
                                                                                                    
                                                                                                    
                                                                                                    
                                                                                                    
                                                                                                    
                                                                                                    
                           
<?xpacket end="w"?></metadata>
<defs>
    <style>
      .cls-1 {
        fill: #2d61f6;
        fill-rule: evenodd;
      }
    </style>
  </defs>
  <path id="shape_3" data-name="shape 3" class="cls-1" d="M1105.71,1158l-53.71-1.14V1104.6l26.74-12.6H1121v40.85Zm-49.89-7.65,1.72-1.52,2.69,2.69-1.7,1.52,43.35,1.15v-21.35h-0.66v-3.81h0.66l0.01-20.61h-19.32v0.62h-3.82v-0.62h-22.93v41.93Zm26.74-54.55v3.21h-3.82v-2.76l-17.52,8.34h17.52v-0.8h3.82v0.8h20.45l11.47-8.79h-31.92Zm34.63,2.71-11.5,8.79v21.72h2.35v3.81h-2.34v19.77l9.88-19.76h-2.74v-3.81h4.35v-30.52Zm-34.62,19.97h-3.83v-4.66h3.83v4.66Zm-0.01,4.79v5.76h4.7v3.82h-5.84l-3.71,3.27-2.7-2.69,3.72-3.28v-6.88h3.83Zm-14.4,16.2,3.26-2.87,2.69,2.69-3.25,2.87Zm-7.03,6.19,3.44-3.02,2.69,2.69-3.43,3.02Zm35.29-12.81h-4.35v-3.82h4.35v3.82Z" transform="translate(-1046.5 -1092)"/>
</svg>
