<svg xmlns="http://www.w3.org/2000/svg" width="46" height="18" viewBox="0 0 46 18">
  <metadata><?xpacket begin="﻿" id="W5M0MpCehiHzreSzNTczkc9d"?>
<x:xmpmeta xmlns:x="adobe:ns:meta/" x:xmptk="Adobe XMP Core 5.6-c138 79.159824, 2016/09/14-01:09:01        ">
   <rdf:RDF xmlns:rdf="http://www.w3.org/1999/02/22-rdf-syntax-ns#">
      <rdf:Description rdf:about=""/>
   </rdf:RDF>
</x:xmpmeta>





















<?xpacket end="w"?></metadata>
<defs>
    <style>
      .cls-1 {
        fill: #fff;
        fill-rule: evenodd;
      }
    </style>
  </defs>
  <path id="shape_11_copy" data-name="shape 11 copy" class="cls-1" d="M3568.1,509.537l-11.82,7.04a1.521,1.521,0,0,1-2.3-.233,1.453,1.453,0,0,1,.46-2.336l7-4.237h-36.6a1.651,1.651,0,0,1-1.84-1.635c0-.047.01-0.09,0.01-0.136s-0.01-.089-0.01-0.136a1.651,1.651,0,0,1,1.84-1.635h36.6l-7-4.237a1.453,1.453,0,0,1-.46-2.336,1.521,1.521,0,0,1,2.3-.233l11.82,7.04A1.772,1.772,0,0,1,3568.1,509.537Z" transform="translate(-3523 -499)"/>
</svg>
