<svg xmlns="http://www.w3.org/2000/svg" width="29.06" height="29.031" viewBox="0 0 29.06 29.031">
  <metadata><?xpacket begin="﻿" id="W5M0MpCehiHzreSzNTczkc9d"?>
<x:xmpmeta xmlns:x="adobe:ns:meta/" x:xmptk="Adobe XMP Core 5.6-c138 79.159824, 2016/09/14-01:09:01        ">
   <rdf:RDF xmlns:rdf="http://www.w3.org/1999/02/22-rdf-syntax-ns#">
      <rdf:Description rdf:about=""/>
   </rdf:RDF>
</x:xmpmeta>
                                                                                                    
                                                                                                    
                                                                                                    
                                                                                                    
                                                                                                    
                                                                                                    
                                                                                                    
                                                                                                    
                                                                                                    
                                                                                                    
                                                                                                    
                                                                                                    
                                                                                                    
                                                                                                    
                                                                                                    
                                                                                                    
                                                                                                    
                                                                                                    
                                                                                                    
                                                                                                    
                           
<?xpacket end="w"?></metadata>
<defs>
    <style>
      .cls-1 {
        fill: #fff;
        fill-rule: evenodd;
      }
    </style>
  </defs>
  <path id="形状_13_拷贝" data-name="形状 13 拷贝" class="cls-1" d="M7808.74,295.488l11.82-11.8a1.558,1.558,0,0,0,0-2.175l-0.07-.068a1.566,1.566,0,0,0-2.18,0l-11.81,11.827-11.82-11.827a1.566,1.566,0,0,0-2.18,0l-0.07.068a1.521,1.521,0,0,0,0,2.175l11.82,11.8-11.82,11.827a1.558,1.558,0,0,0,0,2.175l0.07,0.068a1.566,1.566,0,0,0,2.18,0l11.82-11.8,11.81,11.8a1.566,1.566,0,0,0,2.18,0l0.07-.068a1.558,1.558,0,0,0,0-2.175Zm0,0" transform="translate(-7791.97 -281)"/>
</svg>
