<svg xmlns="http://www.w3.org/2000/svg" width="19" height="19" viewBox="0 0 19 19">
  <metadata><?xpacket begin="﻿" id="W5M0MpCehiHzreSzNTczkc9d"?>
<x:xmpmeta xmlns:x="adobe:ns:meta/" x:xmptk="Adobe XMP Core 5.6-c138 79.159824, 2016/09/14-01:09:01        ">
   <rdf:RDF xmlns:rdf="http://www.w3.org/1999/02/22-rdf-syntax-ns#">
      <rdf:Description rdf:about=""/>
   </rdf:RDF>
</x:xmpmeta>
                                                                                                    
                                                                                                    
                                                                                                    
                                                                                                    
                                                                                                    
                                                                                                    
                                                                                                    
                                                                                                    
                                                                                                    
                                                                                                    
                                                                                                    
                                                                                                    
                                                                                                    
                                                                                                    
                                                                                                    
                                                                                                    
                                                                                                    
                                                                                                    
                                                                                                    
                                                                                                    
                           
<?xpacket end="w"?></metadata>
<defs>
    <style>
      .cls-1 {
        fill: #686868;
        fill-rule: evenodd;
      }
    </style>
  </defs>
  <path id="形状_21" data-name="形状 21" class="cls-1" d="M9262.74,428h-10.53a2.255,2.255,0,0,1-2.26-2.258V415.208a2.258,2.258,0,0,1,2.26-2.258h10.53a2.258,2.258,0,0,1,2.26,2.258v10.534a2.257,2.257,0,0,1-2.26,2.258h0Zm-1.5-8.653h-2.64v-2.636a1.126,1.126,0,0,0-2.25,0v2.634h-2.64a1.129,1.129,0,1,0,0,2.257h2.64v2.634a1.126,1.126,0,0,0,2.25,0V421.6h2.64a1.129,1.129,0,0,0,0-2.256h0Zm-2.64-8.091h-10.34v10.537h0.75v2.258h-0.75a2.257,2.257,0,0,1-2.26-2.259V411.258a2.257,2.257,0,0,1,2.26-2.258h10.53a2.257,2.257,0,0,1,2.26,2.258v0.75h-2.45v-0.752Zm0,0" transform="translate(-9246 -409)"/>
</svg>
