<svg xmlns="http://www.w3.org/2000/svg" width="253" height="155" viewBox="0 0 253 155">
  <metadata><?xpacket begin="﻿" id="W5M0MpCehiHzreSzNTczkc9d"?>
<x:xmpmeta xmlns:x="adobe:ns:meta/" x:xmptk="Adobe XMP Core 5.6-c138 79.159824, 2016/09/14-01:09:01        ">
   <rdf:RDF xmlns:rdf="http://www.w3.org/1999/02/22-rdf-syntax-ns#">
      <rdf:Description rdf:about=""/>
   </rdf:RDF>
</x:xmpmeta>
                                                                                                    
                                                                                                    
                                                                                                    
                                                                                                    
                                                                                                    
                                                                                                    
                                                                                                    
                                                                                                    
                                                                                                    
                                                                                                    
                                                                                                    
                                                                                                    
                                                                                                    
                                                                                                    
                                                                                                    
                                                                                                    
                                                                                                    
                                                                                                    
                                                                                                    
                                                                                                    
                           
<?xpacket end="w"?></metadata>
<defs>
    <style>
      .cls-1 {
        fill: #373737;
        fill-rule: evenodd;
      }
    </style>
  </defs>
  <path id="shape_14" data-name="shape 14" class="cls-1" d="M8862.34,630.772h-3.4v3.4a1.689,1.689,0,0,1-1.69,1.652,1.664,1.664,0,0,1-1.69-1.652v-3.4h-3.4a1.692,1.692,0,0,1-1.18-2.873,1.65,1.65,0,0,1,1.18-.5h3.4V624a1.7,1.7,0,0,1,2.88-1.177,1.638,1.638,0,0,1,.5,1.177v3.4h3.4a1.69,1.69,0,0,1,1.66,1.685A1.665,1.665,0,0,1,8862.34,630.772ZM8830.26,571.8a10.109,10.109,0,1,1,10.12-10.109A10.114,10.114,0,0,1,8830.26,571.8Zm0-15.164a5.055,5.055,0,1,0,5.06,5.055A5.06,5.06,0,0,0,8830.26,556.639ZM8813.4,666.153h-40.48v3.386a13.43,13.43,0,0,1-1.8,6.723h1.81a3.37,3.37,0,0,1,0,6.739h-4.57a2.706,2.706,0,0,0-.71-0.1h-40.17a2.842,2.842,0,0,0-.72.1h-75.29a3.37,3.37,0,0,1,0-6.74h15.3a13.44,13.44,0,0,1-1.8-6.722V571.786a13.478,13.478,0,0,1,13.51-13.462h10.11v-3.386a13.474,13.474,0,0,1,13.5-13.461h80.93a13.473,13.473,0,0,1,13.51,13.461v97.753a13.319,13.319,0,0,1-1.8,6.722h18.66A3.37,3.37,0,1,1,8813.4,666.153ZM8678.23,565.064a6.533,6.533,0,0,0-6.51,6.563v97.878a6.759,6.759,0,0,0,6.72,6.756h51.2l-0.01-.008h19.09v0.008h10.73a6.723,6.723,0,0,0,6.72-6.756V571.627a6.525,6.525,0,0,0-6.51-6.563h-81.43Zm111.55-10.109a6.714,6.714,0,0,0-6.71-6.739h-81.02a6.746,6.746,0,0,0-6.72,6.739v3.369h64.08a13.473,13.473,0,0,1,13.51,13.462v87.627h10.15a6.741,6.741,0,0,0,6.71-6.739V554.955Zm-47.2,43.8h-54.02a3.329,3.329,0,0,1-2.37-.99,3.372,3.372,0,0,1,2.37-5.749h54.02A3.37,3.37,0,0,1,8742.58,598.76Zm-16.89-16.848h-37.1a3.37,3.37,0,1,1-.01-6.739h37.11A3.37,3.37,0,1,1,8725.69,581.912Zm-37.11,26.957h23.63a3.37,3.37,0,0,1,0,6.739h-23.63A3.37,3.37,0,1,1,8688.58,608.869Zm-29.54-68.235h-5.03v5.02a2.527,2.527,0,0,1-4.33,1.8,2.579,2.579,0,0,1-.73-1.8v-5.02h-5.03a2.534,2.534,0,0,1-1.8-.731,2.5,2.5,0,0,1-.76-1.8,2.547,2.547,0,0,1,2.56-2.528h5.03v-5.02a2.53,2.53,0,1,1,5.06,0v5.021h5.03A2.528,2.528,0,1,1,8659.04,540.634ZM8639.71,644.25h-3.41v3.4a1.685,1.685,0,0,1-3.37,0v-3.4h-3.41a1.682,1.682,0,0,1-1.65-1.685,1.656,1.656,0,0,1,1.65-1.685h3.41v-3.4a1.685,1.685,0,0,1,3.37,0v3.4h3.41a1.689,1.689,0,0,1,1.65,1.685A1.663,1.663,0,0,1,8639.71,644.25Zm-18.59-52.229a10.109,10.109,0,1,1,10.12-10.109A10.114,10.114,0,0,1,8621.12,592.021Zm4.38-12.637a5.055,5.055,0,1,0,0,5.055A5.051,5.051,0,0,0,8625.5,579.384Zm-7.76,96.877H8638a3.37,3.37,0,0,1,0,6.74h-20.26A3.37,3.37,0,1,1,8617.74,676.261Z" transform="translate(-8611 -528)"/>
</svg>
