<svg xmlns="http://www.w3.org/2000/svg" width="60" height="62" viewBox="0 0 60 62">
  <metadata><?xpacket begin="﻿" id="W5M0MpCehiHzreSzNTczkc9d"?>
<x:xmpmeta xmlns:x="adobe:ns:meta/" x:xmptk="Adobe XMP Core 5.6-c138 79.159824, 2016/09/14-01:09:01        ">
   <rdf:RDF xmlns:rdf="http://www.w3.org/1999/02/22-rdf-syntax-ns#">
      <rdf:Description rdf:about=""/>
   </rdf:RDF>
</x:xmpmeta>





















<?xpacket end="w"?></metadata>
<defs>
    <style>
      .cls-1 {
        fill: #fff;
        fill-rule: evenodd;
      }
    </style>
  </defs>
  <path id="椭圆_3_拷贝_19" data-name="椭圆 3 拷贝 19" class="cls-1" d="M751.257,3526.23l8.031,2.26a2.306,2.306,0,0,1,1.794,2.71,2.277,2.277,0,0,1-2.728,1.75l-13.18-3.71A29.985,29.985,0,1,1,751.257,3526.23Zm-8.671-42.94a13.623,13.623,0,0,0-15.9-8.18c-0.6.19-1.2,0.41-1.788,0.64a27.211,27.211,0,0,0,15.051,52.02l-2.456-.7a13.421,13.421,0,0,1-2.167-.6,2.929,2.929,0,0,1-.3-0.12,13.635,13.635,0,0,1-.034-25.33A13.442,13.442,0,0,0,742.586,3483.29Zm1,28.97a3.811,3.811,0,1,0-.878,4.15A3.806,3.806,0,0,0,743.584,3512.26Zm-13.7-20.09a3.816,3.816,0,1,1,3.551-2.31A3.818,3.818,0,0,1,729.884,3492.17Z" transform="translate(-705 -3471)"/>
</svg>
