<svg xmlns="http://www.w3.org/2000/svg" width="26" height="25" viewBox="0 0 26 25">
  <metadata><?xpacket begin="﻿" id="W5M0MpCehiHzreSzNTczkc9d"?>
<x:xmpmeta xmlns:x="adobe:ns:meta/" x:xmptk="Adobe XMP Core 5.6-c138 79.159824, 2016/09/14-01:09:01        ">
   <rdf:RDF xmlns:rdf="http://www.w3.org/1999/02/22-rdf-syntax-ns#">
      <rdf:Description rdf:about=""/>
   </rdf:RDF>
</x:xmpmeta>
                                                                                                    
                                                                                                    
                                                                                                    
                                                                                                    
                                                                                                    
                                                                                                    
                                                                                                    
                                                                                                    
                                                                                                    
                                                                                                    
                                                                                                    
                                                                                                    
                                                                                                    
                                                                                                    
                                                                                                    
                                                                                                    
                                                                                                    
                                                                                                    
                                                                                                    
                                                                                                    
                           
<?xpacket end="w"?></metadata>
<defs>
    <style>
      .cls-1 {
        fill: #fff;
        fill-rule: evenodd;
      }
    </style>
  </defs>
  <path id="形状_8_拷贝" data-name="形状 8 拷贝" class="cls-1" d="M3753.94,210.476a1.856,1.856,0,0,1,1.98-.322,13.4,13.4,0,0,1,3.09,1.869,1.884,1.884,0,0,1,.65,1.849l-0.05.234a4.49,4.49,0,0,0,.53,2.959,4.692,4.692,0,0,0,2.48,2.072,1.866,1.866,0,0,1,1.2,1.454,13.968,13.968,0,0,1,.18,1.839v0.13a14.274,14.274,0,0,1-.18,1.848,1.86,1.86,0,0,1-1.19,1.448,4.778,4.778,0,0,0-2.45,2.023,5.188,5.188,0,0,0-.49,3.33,1.86,1.86,0,0,1-.63,1.756,11.3,11.3,0,0,1-3.18,1.906,1.855,1.855,0,0,1-1.92-.348,4.386,4.386,0,0,0-2.94-1.135,4.565,4.565,0,0,0-2.97,1.148,1.861,1.861,0,0,1-1.97.31,14.246,14.246,0,0,1-3.08-1.834,1.872,1.872,0,0,1-.68-1.8,5.294,5.294,0,0,0-.47-3.28,4.729,4.729,0,0,0-2.48-2.072,1.848,1.848,0,0,1-1.2-1.434,11.358,11.358,0,0,1,0-3.858,1.849,1.849,0,0,1,1.2-1.432,4.672,4.672,0,0,0,2.44-2.028,5.061,5.061,0,0,0,.49-3.309l-0.02-.152a1.879,1.879,0,0,1,.65-1.619,11.491,11.491,0,0,1,3.2-1.9,1.85,1.85,0,0,1,1.9.336,4.581,4.581,0,0,0,2.96,1.148,4.391,4.391,0,0,0,2.95-1.135h0Zm1.24,1.384a6.238,6.238,0,0,1-4.19,1.612,6.45,6.45,0,0,1-4.19-1.612,9.6,9.6,0,0,0-2.67,1.594,6.954,6.954,0,0,1-.68,4.523,6.534,6.534,0,0,1-3.45,2.911,9.183,9.183,0,0,0,0,3.223,6.541,6.541,0,0,1,3.45,2.894,7.072,7.072,0,0,1,.69,4.54,12.691,12.691,0,0,0,2.68,1.595,6.434,6.434,0,0,1,4.18-1.612,6.258,6.258,0,0,1,4.2,1.612,9.413,9.413,0,0,0,2.66-1.595,7.145,7.145,0,0,1,.67-4.522,6.705,6.705,0,0,1,3.46-2.912,12.432,12.432,0,0,0,.16-1.611v-0.07a11.4,11.4,0,0,0-.16-1.542,6.56,6.56,0,0,1-3.46-2.893,6.423,6.423,0,0,1-.69-4.523,11.482,11.482,0,0,0-2.66-1.612h0Zm-4.18,4.725a5.915,5.915,0,1,1-5.9,5.915,5.89,5.89,0,0,1,5.9-5.915h0Zm0,1.86a4.055,4.055,0,1,0,4.05,4.055,4.042,4.042,0,0,0-4.05-4.055h0Zm0,0" transform="translate(-3738 -210)"/>
</svg>
