<svg xmlns="http://www.w3.org/2000/svg" width="20" height="20" viewBox="0 0 20 20">
  <metadata><?xpacket begin="﻿" id="W5M0MpCehiHzreSzNTczkc9d"?>
<x:xmpmeta xmlns:x="adobe:ns:meta/" x:xmptk="Adobe XMP Core 5.6-c138 79.159824, 2016/09/14-01:09:01        ">
   <rdf:RDF xmlns:rdf="http://www.w3.org/1999/02/22-rdf-syntax-ns#">
      <rdf:Description rdf:about=""/>
   </rdf:RDF>
</x:xmpmeta>
                                                                                                    
                                                                                                    
                                                                                                    
                                                                                                    
                                                                                                    
                                                                                                    
                                                                                                    
                                                                                                    
                                                                                                    
                                                                                                    
                                                                                                    
                                                                                                    
                                                                                                    
                                                                                                    
                                                                                                    
                                                                                                    
                                                                                                    
                                                                                                    
                                                                                                    
                                                                                                    
                           
<?xpacket end="w"?></metadata>
<defs>
    <style>
      .cls-1 {
        fill: #686868;
        fill-rule: evenodd;
      }
    </style>
  </defs>
  <path id="圆角矩形_11" data-name="圆角矩形 11" class="cls-1" d="M9573,428a10,10,0,1,1,10-10A10,10,0,0,1,9573,428Zm-5.77-11.277a1.181,1.181,0,1,0,1.22,1.181A1.206,1.206,0,0,0,9567.23,416.723Zm11.46,0.6-4.2-4.049a1.014,1.014,0,0,0-1.4,0,0.924,0.924,0,0,0,0,1.349l2.56,2.461h-4.93a0.909,0.909,0,1,0,0,1.816h4.93l-2.56,2.464a0.925,0.925,0,0,0,0,1.35,1.016,1.016,0,0,0,1.4,0l4.2-4.044A0.922,0.922,0,0,0,9578.69,417.325Z" transform="translate(-9563 -408)"/>
</svg>
