<svg xmlns="http://www.w3.org/2000/svg" width="27" height="27" viewBox="0 0 27 27">
  <metadata><?xpacket begin="﻿" id="W5M0MpCehiHzreSzNTczkc9d"?>
<x:xmpmeta xmlns:x="adobe:ns:meta/" x:xmptk="Adobe XMP Core 5.6-c138 79.159824, 2016/09/14-01:09:01        ">
   <rdf:RDF xmlns:rdf="http://www.w3.org/1999/02/22-rdf-syntax-ns#">
      <rdf:Description rdf:about=""/>
   </rdf:RDF>
</x:xmpmeta>





















<?xpacket end="w"?></metadata>
<defs>
    <style>
      .cls-1 {
        fill: #239e43;
        fill-rule: evenodd;
      }
    </style>
  </defs>
  <path id="shape_20" data-name="shape 20" class="cls-1" d="M9718.5,715a13.5,13.5,0,1,1,13.5-13.5A13.531,13.531,0,0,1,9718.5,715Zm0-25a11.5,11.5,0,1,0,11.5,11.5A11.525,11.525,0,0,0,9718.5,690Zm-1.81,17.669a0.9,0.9,0,0,1-1.4,0l-4-4.415a1.145,1.145,0,0,1,0-1.545,0.906,0.906,0,0,1,1.4,0l3.3,3.642,7.31-8.056a0.9,0.9,0,0,1,1.4,0,1.145,1.145,0,0,1,0,1.545Z" transform="translate(-9705 -688)"/>
</svg>
