<svg id="group_6" data-name="group 6" xmlns="http://www.w3.org/2000/svg" width="44" height="44" viewBox="0 0 44 44">
  <metadata><?xpacket begin="﻿" id="W5M0MpCehiHzreSzNTczkc9d"?>
<x:xmpmeta xmlns:x="adobe:ns:meta/" x:xmptk="Adobe XMP Core 5.6-c138 79.159824, 2016/09/14-01:09:01        ">
   <rdf:RDF xmlns:rdf="http://www.w3.org/1999/02/22-rdf-syntax-ns#">
      <rdf:Description rdf:about=""/>
   </rdf:RDF>
</x:xmpmeta>
                                                                                                    
                                                                                                    
                                                                                                    
                                                                                                    
                                                                                                    
                                                                                                    
                                                                                                    
                                                                                                    
                                                                                                    
                                                                                                    
                                                                                                    
                                                                                                    
                                                                                                    
                                                                                                    
                                                                                                    
                                                                                                    
                                                                                                    
                                                                                                    
                                                                                                    
                                                                                                    
                           
<?xpacket end="w"?></metadata>
<defs>
    <style>
      .cls-1 {
        fill: #3164f4;
      }

      .cls-2 {
        fill: #fff;
        fill-rule: evenodd;
      }
    </style>
  </defs>
  <circle id="shape_14" data-name="shape 14" class="cls-1" cx="22" cy="22" r="22"/>
  <path id="shape_14_copy" data-name="shape 14 copy" class="cls-2" d="M3555.47,508.9a1.424,1.424,0,0,0-1.01-.421,1.447,1.447,0,0,0-1.02.421l-1.68,1.689a0.03,0.03,0,0,1-.03,0,0.029,0.029,0,0,1-.02-0.024V500.406a5.037,5.037,0,0,0-10.02-.744,0.024,0.024,0,0,1-.02.024,0.055,0.055,0,0,0-.03.007v12.254a2.16,2.16,0,1,1-4.32,0V498.226a1.754,1.754,0,0,0-.48-1.081,1.684,1.684,0,0,0-2.23.079l-4.07,4.079a1.442,1.442,0,1,0,2.04,2.04l1.81-1.818a0.03,0.03,0,0,1,.03,0,0.029,0.029,0,0,1,.02.023v10.4a5.037,5.037,0,0,0,10.02.745,0.026,0.026,0,0,1,.03-0.024,0.09,0.09,0,0,0,.02-0.007,0.209,0.209,0,0,0,.01-0.021V500.406a2.155,2.155,0,1,1,4.31,0v13.677l0.01,0.1a1.654,1.654,0,0,0,.41.95,1.617,1.617,0,0,0,2.17-.139l4.05-4.061a1.436,1.436,0,0,0,0-2.03h0Z" transform="translate(-3521 -484)"/>
</svg>
