<svg xmlns="http://www.w3.org/2000/svg" width="20" height="20" viewBox="0 0 20 20">
  <metadata><?xpacket begin="﻿" id="W5M0MpCehiHzreSzNTczkc9d"?>
<x:xmpmeta xmlns:x="adobe:ns:meta/" x:xmptk="Adobe XMP Core 5.6-c138 79.159824, 2016/09/14-01:09:01        ">
   <rdf:RDF xmlns:rdf="http://www.w3.org/1999/02/22-rdf-syntax-ns#">
      <rdf:Description rdf:about=""/>
   </rdf:RDF>
</x:xmpmeta>
                                                                                                    
                                                                                                    
                                                                                                    
                                                                                                    
                                                                                                    
                                                                                                    
                                                                                                    
                                                                                                    
                                                                                                    
                                                                                                    
                                                                                                    
                                                                                                    
                                                                                                    
                                                                                                    
                                                                                                    
                                                                                                    
                                                                                                    
                                                                                                    
                                                                                                    
                                                                                                    
                           
<?xpacket end="w"?></metadata>
<defs>
    <style>
      .cls-1 {
        fill: #fff;
        fill-rule: evenodd;
        opacity: 0.6;
      }
    </style>
  </defs>
  <path id="shape_10" data-name="shape 10" class="cls-1" d="M3415,974a10,10,0,1,0,10,10,10,10,0,0,0-10-10h0Zm-0.02,15.806a0.9,0.9,0,1,1,.9-0.9,0.9,0.9,0,0,1-.9.9h0Zm1.4-4.91a1.083,1.083,0,0,0-.69,1V986.4a0.179,0.179,0,0,1-.18.179h-1.07a0.179,0.179,0,0,1-.18-0.179v-0.48a2.51,2.51,0,0,1,.45-1.451,2.463,2.463,0,0,1,1.16-.914,1.808,1.808,0,0,0,1.25-1.625,2.181,2.181,0,0,0-4.29,0v0.17a0.179,0.179,0,0,1-.18.179h-1.07a0.179,0.179,0,0,1-.18-0.179v-0.17a3.038,3.038,0,0,1,1.08-2.309,3.879,3.879,0,0,1,4.99,0,3.038,3.038,0,0,1,1.08,2.309,3.225,3.225,0,0,1-2.17,2.962h0Zm0,0" transform="translate(-3405 -974)"/>
</svg>
