<svg xmlns="http://www.w3.org/2000/svg" width="33" height="33" viewBox="0 0 33 33">
  <metadata><?xpacket begin="﻿" id="W5M0MpCehiHzreSzNTczkc9d"?>
<x:xmpmeta xmlns:x="adobe:ns:meta/" x:xmptk="Adobe XMP Core 5.6-c138 79.159824, 2016/09/14-01:09:01        ">
   <rdf:RDF xmlns:rdf="http://www.w3.org/1999/02/22-rdf-syntax-ns#">
      <rdf:Description rdf:about=""/>
   </rdf:RDF>
</x:xmpmeta>
                                                                                                    
                                                                                                    
                                                                                                    
                                                                                                    
                                                                                                    
                                                                                                    
                                                                                                    
                                                                                                    
                                                                                                    
                                                                                                    
                                                                                                    
                                                                                                    
                                                                                                    
                                                                                                    
                                                                                                    
                                                                                                    
                                                                                                    
                                                                                                    
                                                                                                    
                                                                                                    
                           
<?xpacket end="w"?></metadata>
<defs>
    <style>
      .cls-1 {
        fill: #fff;
        fill-rule: evenodd;
      }
    </style>
  </defs>
  <path id="shape_12" data-name="shape 12" class="cls-1" d="M5474.77,1155.03a16.5,16.5,0,1,1,21.46,0l-0.08.07a16.491,16.491,0,0,1-21.3,0ZM5485.5,1129a13.533,13.533,0,0,0-13.5,13.5,13.67,13.67,0,0,0,2.55,7.88,11.424,11.424,0,0,1,5.32-7.13,6.571,6.571,0,0,1-1.12-3.75,6.75,6.75,0,0,1,13.5,0,6.857,6.857,0,0,1-1.13,3.75,11.165,11.165,0,0,1,5.33,7.13,13.742,13.742,0,0,0,2.55-7.88,13.54,13.54,0,0,0-13.5-13.5h0Zm-3.75,10.5a3.75,3.75,0,1,0,3.75-3.75,3.714,3.714,0,0,0-3.75,3.75h0Zm12,13.65V1153a8.156,8.156,0,0,0-5.03-7.57,6.732,6.732,0,0,1-6.44,0,8.265,8.265,0,0,0-5.03,7.57v0.15a13.366,13.366,0,0,0,16.5,0h0Zm0,0" transform="translate(-5469 -1126)"/>
</svg>
